<svg width="800" height="800" xmlns="http://www.w3.org/2000/svg"><path d="M419.405 36.916q-2.468-.137-4.25 1.234-1.645 1.37-2.33 3.564l-1.646 6.032h.274q12.202.138 22.073 6.033 10.008 5.758 15.766 15.766 5.895 9.87 6.032 22.072v.274l6.032-1.645q2.194-.685 3.565-2.33 1.37-1.783 1.234-4.25-.96-12.613-7.266-22.895-6.444-10.145-16.589-16.589-10.282-6.306-22.895-7.266zm31.532 56.072v-1.37q-.137-10.968-5.347-19.88-5.347-8.911-14.258-14.258-8.911-5.21-19.879-5.346h-1.37l-13.847 52.096q-.412 1.234.548 2.056.823.823 2.057.549zm-30.71-27.693q1.92 0 3.154 1.234 1.234 1.233 1.234 3.153t-1.234 3.153q-1.234 1.234-3.154 1.234-1.919 0-3.153-1.234t-1.234-3.153q0-1.92 1.234-3.153 1.234-1.234 3.153-1.234zm8.775 17.548q0-1.92 1.233-3.153 1.234-1.234 3.154-1.234 1.919 0 3.153 1.234t1.234 3.153q0 1.92-1.234 3.153-1.234 1.234-3.153 1.234-1.92 0-3.154-1.234-1.233-1.234-1.233-3.153zm-19.742 6.58q0-1.919 1.234-3.153 1.233-1.233 3.153-1.233t3.153 1.233q1.234 1.234 1.234 3.154 0 1.919-1.234 3.153t-3.153 1.234q-1.92 0-3.153-1.234-1.234-1.234-1.234-3.153z"/><path style="fill:gray;fill-opacity:.0978521;stroke:#000;stroke-width:1;stroke-dasharray:none;stroke-opacity:1" d="M198.467 378.686h273.764V652.45H198.467z"/><path d="M105.77 76.278q1.23-1.367 1.23-3.144V60.966q.273-10.254 7.11-16.953 6.698-6.836 16.952-7.11 10.254.274 16.953 7.11 6.836 6.699 7.11 16.953-.274 10.254-7.11 16.953-6.699 6.836-16.953 7.11h-12.168q-1.777 0-3.144 1.23l-3.692 3.691q-1.23 1.367-1.23 3.145-.137 1.914.273 3.691.274.957.274 1.914-.137 3.555-2.461 5.88-2.324 2.187-5.742 2.323-3.418-.136-5.743-2.324-2.324-2.324-2.46-5.879-.137-1.504-1.641-1.64-3.418-.137-5.742-2.325-2.325-2.324-2.461-5.878.136-3.418 2.46-5.743 2.325-2.324 5.743-2.46.957 0 2.05.273 1.778.41 3.555.41 1.778-.137 3.145-1.367zM668.695 76.278q1.23-1.367 1.23-3.144V60.966q.273-10.254 7.11-16.953 6.699-6.836 16.953-7.11 10.253.274 16.953 7.11 6.836 6.699 7.11 16.953-.274 10.254-7.11 16.953-6.7 6.836-16.953 7.11H681.82q-1.778 0-3.145 1.23l-3.691 3.691q-1.23 1.367-1.23 3.145-.138 1.914.273 3.691.273.957.273 1.914-.137 3.555-2.46 5.88-2.325 2.187-5.743 2.323-3.418-.136-5.742-2.324-2.324-2.324-2.461-5.879-.137-1.504-1.64-1.64-3.419-.137-5.743-2.325-2.324-2.324-2.46-5.878.136-3.418 2.46-5.743 2.324-2.324 5.742-2.46.957 0 2.051.273 1.777.41 3.555.41 1.777-.137 3.144-1.367zM496.792 183.24l15.864-3.036-15.864 3.035 15.864-3.035v-2.207q.276-3.035 3.31-3.31 3.036.275 3.311 3.31V201.172h4.415V175.79q.276-3.035 3.31-3.31 3.035.275 3.311 3.31V201.172H560.937q1.931 0 3.173 1.38 1.241 1.241 1.241 3.31-.69 9.519-5.655 17.106-5.104 7.449-13.105 11.725l-.276 1.38q-.276 2.069-1.793 3.448-1.518 1.38-3.587 1.38h-21.244q-2.069 0-3.586-1.38-1.518-1.38-1.794-3.449l-.275-1.379q-8.001-4.276-13.105-11.725-4.966-7.587-5.656-17.106 0-2.069 1.241-3.31 1.242-1.38 3.173-1.38h12.967v-6.621h-15.45q-2.07-.138-2.207-2.207.138-2.07 2.207-2.208l15.45-.551v-4.415l-15.036 2.345q-2.345.138-2.621-2.207.138-1.655 1.793-2.069zm65.525 11.31h-27.59 27.59-27.59v-5.655l27.59-.828q3.034.138 3.31 3.173-.276 3.035-3.31 3.31zm.551-17.243-28.14 4.415 28.14-4.415-28.14 4.415v-5.656l27.037-5.104q1.655-.276 2.759.69 1.103.965 1.103 2.483-.138 2.62-2.759 3.172zM298.195 184.026h1.094q-3.829-4.239-9.844-4.375-1.777 0-3.418.41-1.914-4.102-5.606-6.563-3.691-2.597-8.476-2.597-4.785 0-8.477 2.597-3.691 2.461-5.605 6.563-1.64-.41-3.418-.41-5.606.136-9.297 3.828-3.691 3.691-3.828 9.297.137 5.605 3.828 9.296 3.691 3.692 9.297 3.829h9.98l-11.484-11.622q-1.367-1.503 0-3.007 1.504-1.368 3.008 0l13.808 13.671v-18.73q.137-2.05 2.188-2.187 2.05.136 2.187 2.187v19.688h7.11q-.547-2.051-.547-4.375.137-7.383 5.058-12.442 5.06-4.922 12.442-5.058zm-53.184 26.25q-1.504 0-2.597 1.093-1.094 1.094-1.094 2.598.137 7.383 4.101 12.988 3.965 5.606 10.528 8.203l.273 1.914q.684 3.555 4.238 3.829h31.72q3.554-.274 4.374-3.829l.137-1.914q6.562-2.597 10.527-8.203 3.965-5.605 4.102-12.988 0-1.504-1.094-2.598-1.094-1.093-2.598-1.093zm66.309-8.75q-.137-5.606-3.828-9.297-3.692-3.692-9.297-3.828-5.606.136-9.297 3.828-3.691 3.691-3.828 9.297 0 2.324.82 4.375h24.746q.684-2.051.684-4.375z"/><path style="fill:gray;fill-opacity:.0978521;stroke:#000;stroke-width:1.036;stroke-dasharray:none;stroke-opacity:1" d="M58.74 672.815h80v80h-80z"/><path d="M108.74 692.815q0-1.458.937-2.396.938-.937 2.396-.937h13.333q1.459 0 2.396.937.938.938.938 2.396 0 1.459-.938 2.396-.937.938-2.396.938h-10v10q0 1.458-.937 2.395-.938.938-2.396.938h-10v10q0 1.458-.937 2.396-.938.937-2.396.937h-10v10q0 1.459-.938 2.396-.937.938-2.396.938H72.073q-1.458 0-2.396-.938-.937-.937-.937-2.396 0-1.458.937-2.395.938-.938 2.396-.938h10v-10q0-1.458.938-2.396.937-.937 2.395-.937h10v-10q0-1.459.938-2.396.937-.938 2.396-.938h10z"/><path style="fill:gray;fill-opacity:.0978521;stroke:#000;stroke-width:1.036;stroke-dasharray:none;stroke-opacity:1" d="M656.31 672.815h80v80h-80z"/><path d="M706.31 692.815q0-1.458.937-2.396.938-.937 2.396-.937h13.333q1.459 0 2.396.937.938.938.938 2.396 0 1.459-.938 2.396-.937.938-2.396.938h-10v10q0 1.458-.937 2.395-.938.938-2.396.938h-10v10q0 1.458-.938 2.396-.937.937-2.395.937h-10v10q0 1.459-.938 2.396-.937.938-2.396.938h-13.333q-1.458 0-2.396-.938-.937-.937-.937-2.396 0-1.458.937-2.395.938-.938 2.396-.938h10v-10q0-1.458.937-2.396.938-.937 2.396-.937h10v-10q0-1.459.938-2.396.937-.938 2.396-.938h10z"/><path style="fill:gray;fill-opacity:.0978521;stroke:#000;stroke-width:1;stroke-dasharray:none;stroke-opacity:1" d="M530.813 378.686h79.5v177.045h-79.5z"/><path d="M580.563 447.208q0-1.458.938-2.395.937-.938 2.395-.938h13.334q1.458 0 2.395.938.938.937.938 2.395 0 1.459-.937 2.396-.938.938-2.396.938h-10v10q0 1.458-.938 2.396-.937.937-2.396.937h-10v10q0 1.458-.937 2.396-.938.937-2.396.937h-10v10q0 1.459-.938 2.396-.937.938-2.395.938h-13.334q-1.458 0-2.396-.938-.937-.937-.937-2.396 0-1.458.937-2.395.938-.938 2.396-.938h10v-10q0-1.458.938-2.396.937-.937 2.396-.937h10v-10q0-1.459.937-2.396.938-.938 2.396-.938h10zM374.724 493.693q0 1.094-.137 2.05 4.239 3.145 4.512 8.887-.137 4.649-3.145 7.793-3.144 3.008-7.793 3.145h-2.187v30.625q0 1.914-1.23 3.144-1.231 1.231-3.145 1.231t-3.145-1.23q-1.23-1.231-1.23-3.145v-30.625h-2.188q-4.648-.137-7.792-3.145-3.008-3.144-3.145-7.793.273-5.742 4.512-8.886-.137-.957-.137-2.051.137-5.606 3.828-9.297 3.692-3.691 9.297-3.828 5.605.137 9.297 3.828 3.691 3.691 3.828 9.297zm-78.75 17.5q0-1.914 1.23-3.145 1.23-1.23 3.145-1.23h35q1.914 0 3.145 1.23 1.23 1.23 1.23 3.145v8.75q0 1.914-1.23 3.144-1.231 1.231-3.145 1.231h-35q-1.914 0-3.145-1.23-1.23-1.231-1.23-3.145zm0 17.5h43.75-43.75 43.75q1.914 0 3.145 1.23 1.23 1.23 1.23 3.145 0 1.914-1.23 3.144-1.231 1.231-3.145 1.231v8.75q0 1.914-1.23 3.144-1.231 1.231-3.145 1.231t-3.145-1.23q-1.23-1.231-1.23-3.145v-8.75h-26.25v8.75q0 1.914-1.23 3.144-1.231 1.231-3.145 1.231t-3.145-1.23q-1.23-1.231-1.23-3.145v-8.75q-1.914 0-3.145-1.23-1.23-1.231-1.23-3.145t1.23-3.145q1.23-1.23 3.145-1.23z"/><rect style="fill:gray;fill-opacity:.1;fill-rule:nonzero;stroke:none;stroke-width:0;stroke-dasharray:none;stroke-opacity:1" width="800" height="313" ry="0"/><path d="M800 313H0" style="fill:none;stroke:#000;stroke-width:1px;stroke-linecap:butt;stroke-linejoin:miter;stroke-opacity:1"/></svg>