<?xml version="1.0" encoding="UTF-8" standalone="no"?>
<!-- Created with Inkscape (http://www.inkscape.org/) -->

<svg
        width="800"
        height="800"
        viewBox="0 0 800 800"
        version="1.1"
        id="SVGRoot"
        sodipodi:docname="mensaplan.svg"
        inkscape:version="1.2.2 (b0a8486541, 2022-12-01)"
        xmlns:inkscape="http://www.inkscape.org/namespaces/inkscape"
        xmlns:sodipodi="http://sodipodi.sourceforge.net/DTD/sodipodi-0.dtd"
        xmlns="http://www.w3.org/2000/svg"
        xmlns:rdf="http://www.w3.org/1999/02/22-rdf-syntax-ns#"
        xmlns:cc="http://creativecommons.org/ns#">
    <sodipodi:namedview
            id="namedview4049"
            pagecolor="#505050"
            bordercolor="#ffffff"
            borderopacity="1"
            inkscape:showpageshadow="0"
            inkscape:pageopacity="0"
            inkscape:pagecheckerboard="1"
            inkscape:deskcolor="#505050"
            inkscape:document-units="px"
            showgrid="false"
            inkscape:zoom="0.70710678"
            inkscape:cx="17.677669"
            inkscape:cy="418.60721"
            inkscape:window-width="1920"
            inkscape:window-height="1045"
            inkscape:window-x="0"
            inkscape:window-y="1"
            inkscape:window-maximized="1"
            inkscape:current-layer="layer1"/>
    <defs
            id="defs4044">
        <linearGradient
                id="linearGradient20058"
                inkscape:swatch="solid">
            <stop
                    style="stop-color:#000000;stop-opacity:1;"
                    offset="0"
                    id="stop20056"/>
        </linearGradient>
    </defs>
    <g
            inkscape:label="Layer 1"
            inkscape:groupmode="layer"
            id="layer1">
        <path
                d="m 419.40486,36.915867 q -2.46774,-0.137108 -4.25003,1.233856 v 0 0 q -1.64509,1.370963 -2.33063,3.56451 l -1.64508,6.032223 v 0 q 0.1371,0 0.1371,0 0.13711,0 0.13711,0 12.20155,0.137107 22.07248,6.032222 10.00804,5.758038 15.76604,15.766053 5.89512,9.870918 6.03223,22.072468 0,0 0,0.13711 0,0 0,0.13711 l 6.03222,-1.645151 v 0 q 2.19362,-0.685536 3.56449,-2.330644 1.37097,-1.782246 1.23387,-4.249978 Q 465.1949,71.052812 458.88867,60.770612 452.44512,50.6255 442.29998,44.181985 432.01773,37.875568 419.40496,36.915897 Z m 31.53208,56.072302 q 0,-0.68544 0,-1.37097 -0.13711,-10.967694 -5.34678,-19.87894 -5.34669,-8.911237 -14.25797,-14.257983 -8.91127,-5.209648 -19.87896,-5.346746 -0.68554,0 -1.37097,0 0,0 0,0 l -13.84664,52.0965 v 0 q -0.41133,1.23388 0.54843,2.05642 0.82264,0.82255 2.05651,0.54843 z M 420.2274,65.294754 q 1.9194,0 3.15327,1.233856 v 0 0 q 1.23386,1.233866 1.23386,3.153209 0,1.919352 -1.23386,3.153208 -1.23387,1.233876 -3.15327,1.233876 -1.9193,0 -3.15317,-1.233876 -1.23387,-1.233856 -1.23387,-3.153208 0,-1.919343 1.23387,-3.153209 1.23387,-1.233856 3.15317,-1.233856 z m 8.77417,17.548288 q 0,-1.919342 1.23386,-3.153208 v 0 0 q 1.23387,-1.233856 3.15317,-1.233856 1.91941,0 3.15327,1.233856 1.23387,1.233866 1.23387,3.153208 0,1.919343 -1.23387,3.153209 -1.23386,1.233876 -3.15327,1.233876 -1.9193,0 -3.15317,-1.233876 -1.23386,-1.233866 -1.23386,-3.153209 z m -19.74186,6.580622 q 0,-1.919342 1.23387,-3.153208 v 0 0 q 1.23386,-1.233866 3.15327,-1.233866 1.9193,0 3.15317,1.233866 1.23386,1.233866 1.23386,3.153208 0,1.919345 -1.23386,3.153205 -1.23387,1.23387 -3.15317,1.23387 -1.91941,0 -3.15327,-1.23387 -1.23387,-1.23386 -1.23387,-3.153205 z"
                id="path34278"/>
        <rect
                style="fill:#808080;fill-opacity:0.0978521;stroke:#000000;stroke-width:1;stroke-dasharray:none;stroke-opacity:1"
                id="rect19204-2-6-4"
                width="273.76431"
                height="273.76431"
                x="198.46681"
                y="378.68579"/>
        <path
                d="m 105.76928,76.278399 q 1.23047,-1.367189 1.23047,-3.144535 v -12.167969 0 q 0.27343,-10.253908 7.10938,-16.953124 6.69921,-6.835942 16.95312,-7.109373 10.25391,0.273431 16.95312,7.109373 6.83595,6.699216 7.10938,16.953124 -0.27343,10.253908 -7.10938,16.953124 -6.69921,6.835942 -16.95312,7.109373 h -12.16797 v 0 q -1.77734,0 -3.14453,1.230473 l -3.6914,3.691407 v 0 q -1.23047,1.367189 -1.23047,3.144535 -0.13673,1.914061 0.27344,3.691397 0.27343,0.957031 0.27343,1.914072 -0.13672,3.554684 -2.46093,5.878904 -2.32422,2.1875 -5.7422,2.32422 -3.417961,-0.13672 -5.74218,-2.32422 -2.324219,-2.32422 -2.460935,-5.878904 -0.136715,-1.503915 -1.64063,-1.64063 -3.417966,-0.136716 -5.742185,-2.32422 -2.324219,-2.324219 -2.460935,-5.8789 0.136716,-3.417977 2.460935,-5.742196 2.324219,-2.324219 5.742185,-2.460935 0.957041,0 2.050788,0.273432 1.777346,0.410168 3.554681,0.410168 1.777346,-0.136726 3.144526,-1.367199 z"
                id="path32808"/>
        <path
                d="m 668.69459,76.2784 q 1.23047,-1.367188 1.23047,-3.144534 v -12.16797 0 q 0.27344,-10.253908 7.10938,-16.953124 6.69921,-6.835942 16.95312,-7.109373 10.25391,0.273431 16.95313,7.109373 6.83594,6.699216 7.10937,16.953124 -0.27343,10.253908 -7.10937,16.953124 -6.69922,6.835942 -16.95313,7.109374 h -12.16797 v 0 q -1.77734,0 -3.14453,1.230472 l -3.6914,3.691408 v 0 q -1.23047,1.367189 -1.23047,3.144535 -0.13673,1.914061 0.27344,3.691397 0.27343,0.95703 0.27343,1.914072 -0.13671,3.554682 -2.46093,5.878902 -2.32422,2.1875 -5.7422,2.32422 -3.41797,-0.13672 -5.74218,-2.32422 -2.32422,-2.32422 -2.46093,-5.878902 -0.13673,-1.503915 -1.64064,-1.64063 -3.41797,-0.136716 -5.74219,-2.32422 -2.3242,-2.324219 -2.46093,-5.8789 0.13673,-3.417977 2.46093,-5.742196 2.32422,-2.324219 5.74219,-2.460935 0.95704,0 2.05079,0.273431 1.77735,0.410169 3.55469,0.410169 1.77734,-0.136727 3.14452,-1.3672 z"
                id="path32808-5"/>
        <path
                d="m 496.79226,183.23906 15.8638,-3.03482 -15.8638,3.03482 15.8638,-3.03482 v -2.20715 0 q 0.2759,-3.03481 3.31072,-3.31071 3.03481,0.2759 3.3107,3.31071 v 0.96563 0 5.24196 0 5.24195 0 5.104 0 6.62141 0 0 0 h 4.41428 v 0 0 0 -6.62141 0 -5.24195 0 -5.79374 0 -5.3799 0 -2.34508 0 q 0.27589,-3.03482 3.3107,-3.31071 3.03481,0.27589 3.31071,3.31071 v 1.10357 0 5.51784 0 6.62141 0 5.51785 0 6.62141 0 0 0 h 4.41428 v 0 0 0 h 26.20976 v 0 q 1.93125,0 3.17276,1.37947 1.24152,1.24152 1.24152,3.31071 -0.68973,9.51828 -5.6558,17.10531 -5.104,7.4491 -13.10487,11.72543 l -0.2759,1.37945 v 0 q -0.27589,2.06921 -1.7933,3.44866 -1.51741,1.37946 -3.5866,1.37946 h -21.24371 v 0 q -2.06918,0 -3.58659,-1.37946 -1.51742,-1.37945 -1.79331,-3.44866 l -0.27588,-1.37945 v 0 q -8.00088,-4.27633 -13.10488,-11.72543 -4.96606,-7.58703 -5.6558,-17.10531 0,-2.06919 1.24153,-3.31071 1.2415,-1.37947 3.17276,-1.37947 h 12.96692 v 0 -6.62141 0 H 497.2061 v 0 q -2.06919,-0.13795 -2.20714,-2.20713 0.13795,-2.0692 2.20714,-2.20715 l 15.44996,-0.55178 v 0 -4.41427 0 l -15.03612,2.34508 v 0 q -2.34509,0.13795 -2.62098,-2.20713 0.13795,-1.65536 1.7933,-2.06919 z m 65.52442,11.31157 h -27.58923 27.58923 -27.58923 v -5.65579 0 l 27.58923,-0.82768 v 0 q 3.03481,0.13795 3.3107,3.17276 -0.27589,3.03483 -3.3107,3.31071 z m 0.55178,-17.24326 -28.14101,4.41427 28.14101,-4.41427 -28.14101,4.41427 v -5.65578 0 l 27.03744,-5.10402 v 0 q 1.65535,-0.27589 2.75892,0.68973 1.10357,0.96563 1.10357,2.48303 -0.13794,2.62099 -2.75892,3.17277 z"
                id="path35739"/>
        <path
                d="m 298.19486,184.02553 q 0.54689,0 1.09376,0 -3.82813,-4.23828 -9.84376,-4.375 -1.77734,0 -3.41796,0.41016 -1.91406,-4.10158 -5.60547,-6.5625 -3.69141,-2.59766 -8.47657,-2.59766 -4.78515,0 -8.47656,2.59766 -3.69141,2.46092 -5.60547,6.5625 -1.64062,-0.41016 -3.41796,-0.41016 -5.60547,0.13672 -9.29688,3.82812 -3.6914,3.6914 -3.82812,9.29688 0.13672,5.60547 3.82812,9.29688 3.69141,3.69139 9.29688,3.82812 h 9.98048 v 0 l -11.48439,-11.62109 v 0 q -1.36719,-1.50391 0,-3.00782 1.50391,-1.36719 3.00782,0 l 13.80859,13.67187 v 0 -18.73047 0 q 0.13673,-2.05078 2.1875,-2.18749 2.05078,0.13671 2.18751,2.18749 v 19.68751 0 h 7.10937 v 0 q -0.54688,-2.05078 -0.54688,-4.375 0.13672,-7.38282 5.0586,-12.4414 5.05859,-4.92189 12.44139,-5.0586 z m -53.18359,26.25 q -1.50391,0 -2.59766,1.09374 v 0 0 q -1.09375,1.09377 -1.09375,2.59766 0.13672,7.38281 4.10156,12.98828 3.96485,5.60548 10.52735,8.20313 l 0.27344,1.91407 v 0 q 0.68359,3.55469 4.23828,3.82812 h 31.71875 v 0 q 3.5547,-0.27343 4.37501,-3.82812 l 0.13671,-1.91407 v 0 q 6.5625,-2.59765 10.52735,-8.20313 3.96484,-5.60547 4.10156,-12.98828 0,-1.50389 -1.09375,-2.59766 -1.09375,-1.09374 -2.59766,-1.09374 z m 66.3086,-8.75 q -0.13672,-5.60547 -3.82812,-9.29687 v 0 0 q -3.69141,-3.69141 -9.29689,-3.82813 -5.60546,0.13672 -9.29687,3.82813 -3.6914,3.6914 -3.82812,9.29687 0,2.32422 0.82031,4.375 h 24.7461 v 0 q 0.68359,-2.05078 0.68359,-4.375 z"
                id="path36474"/>
        <rect
                style="fill:#808080;fill-opacity:0.0978521;stroke:#000000;stroke-width:1.036;stroke-dasharray:none;stroke-opacity:1"
                id="rect19204-2-4"
                width="80"
                height="80"
                x="58.739681"
                y="672.81531"/>
        <path
                d="m 108.73969,692.81533 q 0,-1.45834 0.93751,-2.39585 v 0 0 q 0.93749,-0.93749 2.39582,-0.93749 h 13.33334 v 0 q 1.45834,0 2.39584,0.93749 0.93748,0.93751 0.93748,2.39585 0,1.45834 -0.93748,2.39583 -0.9375,0.93751 -2.39584,0.93751 h -10 v 0 9.99999 0 q 0,1.45834 -0.93749,2.39583 -0.93751,0.93751 -2.39585,0.93751 h -9.99999 v 0 10 0 q 0,1.45834 -0.9375,2.39583 -0.9375,0.93751 -2.395845,0.93751 h -10 v 0 9.99999 0 q 0,1.45834 -0.937502,2.39583 -0.9375,0.93751 -2.395833,0.93751 H 72.073013 v 0 q -1.458334,0 -2.39583,-0.93751 -0.937504,-0.93749 -0.937504,-2.39583 0,-1.45833 0.937504,-2.39583 0.937496,-0.9375 2.39583,-0.9375 h 10 v 0 -10 0 q 0,-1.45833 0.937504,-2.39584 0.937499,-0.93749 2.395833,-0.93749 h 10.000005 v 0 -10.00001 0 q 0,-1.45833 0.93751,-2.39583 0.93749,-0.9375 2.39582,-0.9375 h 10.000005 v 0 z"
                id="path37209"/>
        <rect
                style="fill:#808080;fill-opacity:0.0978521;stroke:#000000;stroke-width:1.036;stroke-dasharray:none;stroke-opacity:1"
                id="rect19204-2-4-9"
                width="80"
                height="80"
                x="656.30957"
                y="672.81531"/>
        <path
                d="m 706.30959,692.81533 q 0,-1.45834 0.93751,-2.39585 v 0 0 q 0.93749,-0.93749 2.39582,-0.93749 h 13.33334 v 0 q 1.45834,0 2.39584,0.93749 0.93749,0.93751 0.93749,2.39585 0,1.45834 -0.93749,2.39583 -0.9375,0.93751 -2.39584,0.93751 h -10 v 0 9.99999 0 q 0,1.45834 -0.93749,2.39583 -0.93751,0.93751 -2.39585,0.93751 h -9.99999 v 0 10 0 q 0,1.45834 -0.9375,2.39583 -0.9375,0.93751 -2.39584,0.93751 h -10 v 0 9.99999 0 q 0,1.45834 -0.9375,2.39583 -0.9375,0.93751 -2.39583,0.93751 h -13.33334 v 0 q -1.45834,0 -2.39583,-0.93751 -0.93751,-0.93749 -0.93751,-2.39583 0,-1.45833 0.93751,-2.39583 0.93749,-0.9375 2.39583,-0.9375 h 10 v 0 -10 0 q 0,-1.45833 0.9375,-2.39584 0.9375,-0.93749 2.39583,-0.93749 h 10.00001 v 0 -10.00001 0 q 0,-1.45833 0.93751,-2.39583 0.93749,-0.9375 2.39582,-0.9375 h 10 v 0 z"
                id="path37209-3"/>
        <rect
                style="fill:#808080;fill-opacity:0.0978521;stroke:#000000;stroke-width:1;stroke-dasharray:none;stroke-opacity:1"
                id="rect19204-2-6"
                width="79.499634"
                height="177.04535"
                x="530.81317"
                y="378.68579"/>
        <path
                d="m 580.56299,447.20847 q 0,-1.45834 0.93751,-2.39585 v 0 0 q 0.93749,-0.93749 2.39582,-0.93749 h 13.33334 v 0 q 1.45834,0 2.39584,0.93749 0.93749,0.93751 0.93749,2.39585 0,1.45834 -0.93749,2.39583 -0.9375,0.93751 -2.39584,0.93751 h -10 v 0 9.99999 0 q 0,1.45834 -0.93749,2.39583 -0.93751,0.93751 -2.39585,0.93751 h -9.99999 v 0 10 0 q 0,1.45834 -0.9375,2.39583 -0.9375,0.93751 -2.39584,0.93751 h -10 v 0 9.99999 0 q 0,1.45834 -0.9375,2.39583 -0.9375,0.93751 -2.39583,0.93751 h -13.33334 v 0 q -1.45834,0 -2.39583,-0.93751 -0.93751,-0.93749 -0.93751,-2.39583 0,-1.45833 0.93751,-2.39583 0.93749,-0.9375 2.39583,-0.9375 h 10 v 0 -10 0 q 0,-1.45833 0.9375,-2.39584 0.9375,-0.93749 2.39583,-0.93749 h 10.00001 v 0 -10.00001 0 q 0,-1.45833 0.93751,-2.39583 0.93749,-0.9375 2.39582,-0.9375 h 10 v 0 z"
                id="path37209-3-5"/>
        <path
                d="m 374.72397,493.69296 q 0,1.09375 -0.13673,2.05079 4.23829,3.14452 4.51173,8.88671 -0.13672,4.64844 -3.14454,7.79297 -3.14453,3.00781 -7.79296,3.14453 h -2.1875 v 0 30.625 0 q 0,1.91407 -1.23047,3.14453 -1.23047,1.23047 -3.14453,1.23047 -1.91406,0 -3.14454,-1.23047 -1.23046,-1.23046 -1.23046,-3.14453 v -30.625 0 h -2.18751 v 0 q -4.64843,-0.13672 -7.79296,-3.14453 -3.00781,-3.14453 -3.14453,-7.79297 0.27343,-5.74219 4.51172,-8.88671 -0.13672,-0.95704 -0.13672,-2.05079 0.13672,-5.60547 3.82813,-9.29687 3.6914,-3.69141 9.29687,-3.82813 5.60546,0.13672 9.29687,3.82813 3.6914,3.6914 3.82813,9.29687 z m -78.75,17.5 q 0,-1.91406 1.23047,-3.14453 v 0 0 q 1.23047,-1.23047 3.14453,-1.23047 h 35 v 0 q 1.91406,0 3.14453,1.23047 1.23047,1.23047 1.23047,3.14453 v 8.75 0 q 0,1.91407 -1.23047,3.14453 -1.23047,1.23047 -3.14453,1.23047 h -35 v 0 q -1.91406,0 -3.14453,-1.23047 -1.23047,-1.23046 -1.23047,-3.14453 z m 0,17.5 h 43.75 -43.75 43.75 q 1.91406,0 3.14453,1.23047 1.23047,1.23047 1.23047,3.14453 0,1.91406 -1.23047,3.14453 -1.23047,1.23047 -3.14453,1.23047 v 8.75 0 q 0,1.91407 -1.23047,3.14453 -1.23047,1.23047 -3.14453,1.23047 -1.91406,0 -3.14453,-1.23047 -1.23047,-1.23046 -1.23047,-3.14453 v -8.75 0 h -26.25 v 0 8.75 0 q 0,1.91407 -1.23047,3.14453 -1.23047,1.23047 -3.14453,1.23047 -1.91406,0 -3.14453,-1.23047 -1.23047,-1.23046 -1.23047,-3.14453 v -8.75 0 q -1.91407,0 -3.14453,-1.23047 -1.23047,-1.23047 -1.23047,-3.14453 0,-1.91406 1.23047,-3.14453 1.23046,-1.23047 3.14453,-1.23047 z"
                id="path40157"/>
        <rect
                style="fill:#808080;fill-opacity:0.1;fill-rule:nonzero;stroke:none;stroke-width:0;stroke-dasharray:none;stroke-opacity:1"
                id="rect11886"
                width="800"
                height="313"
                x="0"
                y="0"
                ry="0"/>
        <path
                d="M 800,313 H 0"
                id="path1029"
                style="fill:none;stroke:#000000;stroke-width:1px;stroke-linecap:butt;stroke-linejoin:miter;stroke-opacity:1"/>
    </g>
    <metadata
            id="metadata18839">
        <rdf:RDF>
            <cc:Work
                    rdf:about=""/>
        </rdf:RDF>
    </metadata>
</svg>
